<?xml version="1.0" encoding="UTF-8"?>
<svg id="Layer_1" data-name="Layer 1" xmlns="http://www.w3.org/2000/svg" width="1200" height="300" viewBox="0 0 1200 300">
  <rect width="1200" height="300" fill="#fff0d7"/>
  <g id="Layer_7" data-name="Layer 7">
    <path d="M0,217.48V0h665.63c-.42.23-.84.46-1.26.69-.27.14-.52.29-.79.43-37.7,20.41-79.74,38.47-114.84,50.86h0c-6.1,2.16-11.99,4.14-17.61,5.94-62.75,20.03-121.33,25.97-129.11,26.72-8.45.81-16.29,1.39-23.62,1.78-28.65,1.51-49.4.1-67.5-1.52-31.11-2.79-54.41-6.16-96.54,3.71-32.15,7.53-92.88,21.76-139.99,67.58-4.55,4.42-8.46,8.65-12.15,12.75-5.96,6.58-11.38,12.85-18.1,19.15-5.99,5.63-13,11.28-22.34,17.21-5.98,3.8-13.49,8.08-21.77,12.18h0Z" fill="#50a3a4" isolation="isolate" opacity=".8"/>
  </g>
  <g id="Layer_4" data-name="Layer 4">
    <path d="M589.62,0h429.2c2.7,15.35,12.62,26.62,8.31,43.37-7.21,27.98-47.56,45.78-79.29,55.83-15.35,4.86-28.67,7.9-35.24,9.4-80.48,18.38-153.53.39-193.8-13.9-.28-.1-.56-.19-.83-.3-16.79-6-27.72-11.28-30.9-12.87-9.46-4.71-28.01-14.16-48.11-29.56-.2-.16-.41-.31-.62-.48-16.17-12.46-33.28-28.77-47.43-49.56-.24-.35-.48-.69-.7-1.05-.19-.29-.4-.59-.59-.89Z" fill="#fcaf38" isolation="isolate" opacity=".8"/>
  </g>
  <g id="Layer_3" data-name="Layer 3">
    <path d="M847.97,0h352.03v137.94c-29.49,11.1-101.86,29.06-198.89-10.71-13.83-5.67-28.16-12.51-42.94-20.71-4.26-2.36-8.38-4.82-12.33-7.32-25.51-16.1-44.05-33.62-44.05-33.62-13.44-13.28-18.2-21.57-22.17-29.07s-7.16-14.22-17.47-24.37C857.77,7.84,853.01,3.79,847.97,0h0Z" fill="#50a3a4" isolation="isolate" opacity=".8"/>
  </g>
  <g id="Layer_2" data-name="Layer 2">
    <path d="M999.58,128.12c.39-1.01.91-1.97,1.53-2.89,9.53-13.95,45.11-17.16,68.94-19.32,46.74-4.23,101.07-9.15,129.5,20.13.15.15.3.31.44.46v80.36c-.14.12-.29.25-.44.37-33.76,27.29-102.65,4.35-127.74-6.94-18.92-8.52-31.15-18.61-38.76-24.98-17.11-14.32-39.07-32.72-33.48-47.19h0Z" fill="#f95335" isolation="isolate" opacity=".8"/>
  </g>
  <g id="Layer_8" data-name="Layer 8">
    <path d="M0,149.68V0h335.49c-8.03,16.47-19.86,31.04-23.19,35.05-10.49,12.62-22.4,23.37-35.12,32.62-38.75,28.2-85.03,42.47-121.69,53.44-28.64,8.56-53.64,16.04-75.94,21.39-14.46,3.46-27.79,6.04-40.22,7.43-14.12,1.58-27.11,1.64-39.33-.24Z" fill="#f95335" isolation="isolate" opacity=".8"/>
  </g>
  <path d="M352.13,71.15c-30.43-26.86-93.39-19.8-126.96,1.35-2.72,1.71-28.12,17.72-23.15,29.83,3.02,7.35,15.85,9.91,65.93,15.44,83.12,9.18,91.61,6.99,96.69,1.98,11.59-11.44,2.81-35.08-12.51-48.6Z" fill="#fcaf38" isolation="isolate" opacity=".8"/>
  <g>
    <rect y="169.37" width="1200" height="44.2" fill="none"/>
    <path d="M346.88,178.86h-.12c-.03-.71-.29-1.32-.8-1.82-.51-.51-1.11-.76-1.82-.76h-.53v-.41h3.28v2.99ZM346.88,201.58v2.99h-3.28v-.41h.53c.71,0,1.32-.25,1.82-.76.51-.5.77-1.11.8-1.82h.12ZM349.42,175.87v28.7h-2.67v-28.7h2.67ZM366.56,189.77v1.23h-17.55v-1.23h17.55ZM349.3,178.86v-2.99h3.28v.41h-.53c-.71,0-1.32.25-1.82.76-.51.51-.77,1.11-.8,1.82h-.12ZM349.3,201.58h.12c.03.71.29,1.32.8,1.82.51.51,1.11.76,1.82.76h.53v.41h-3.28v-2.99ZM366.31,178.86h-.12c0-.71-.26-1.32-.78-1.82-.52-.51-1.13-.76-1.85-.76h-.53v-.41h3.28v2.99ZM366.31,201.58v2.99h-3.28v-.41h.53c.71,0,1.33-.25,1.85-.76.52-.5.78-1.11.78-1.82h.12ZM368.85,175.87v28.7h-2.67v-28.7h2.67ZM368.73,178.86v-2.99h3.28v.41h-.53c-.71,0-1.32.25-1.82.76-.51.51-.77,1.11-.8,1.82h-.12ZM368.73,201.58h.12c.03.71.29,1.32.8,1.82.51.51,1.11.76,1.82.76h.53v.41h-3.28v-2.99Z"/>
    <path d="M379.6,182.6h-.12c-.03-.63-.31-1.16-.84-1.58-.53-.42-1.18-.64-1.95-.64h-.57v-.41h3.49v2.62ZM379.6,201.95v2.62h-3.49v-.41h.57c.76,0,1.41-.22,1.95-.66.53-.44.81-.96.84-1.56h.12ZM382.06,179.97v24.6h-2.58v-24.6h2.58ZM381.93,182.6v-2.62h3.48l-.04.41h-.53c-.77,0-1.41.21-1.95.64-.53.42-.81.95-.84,1.58h-.12ZM381.93,201.95h.12c.03.6.31,1.12.84,1.56.53.44,1.18.66,1.95.66h.53l.04.41h-3.48v-2.62Z"/>
    <path d="M389.89,201.91c.19-.38.49-.64.9-.76.41-.12.83-.09,1.25.08.42.18.74.54.96,1.09.33.77.46,1.5.39,2.19-.07.7-.28,1.32-.64,1.87-.36.55-.81.98-1.37,1.31-.56.33-1.17.5-1.82.53l-.08-.33c.82-.27,1.35-.64,1.6-1.11.25-.46.32-.94.23-1.41-.1-.48-.25-.85-.47-1.13-.16-.22-.35-.44-.55-.66-.21-.22-.36-.47-.45-.76-.1-.29-.08-.59.06-.92Z"/>
    <path d="M411.21,178.86h-.12c-.03-.71-.29-1.32-.8-1.82-.51-.51-1.11-.76-1.82-.76h-.53v-.41h3.28v2.99ZM411.21,201.58v2.99h-3.28v-.41h.53c.71,0,1.32-.25,1.82-.76.51-.5.77-1.11.8-1.82h.12ZM413.75,175.87v28.7h-2.67v-28.7h2.67ZM413.63,178.86v-2.99h3.28v.41h-.53c-.71,0-1.32.25-1.82.76-.51.51-.77,1.11-.8,1.82h-.12ZM413.63,201.58h.12c.03.71.29,1.32.8,1.82.51.51,1.11.76,1.82.76h.53v.41h-3.28v-2.99Z"/>
    <path d="M421.62,173.53c.19-.41.51-.68.94-.82.44-.14.9-.12,1.37.06.48.18.84.57,1.09,1.17.35.85.49,1.65.41,2.42-.08.77-.32,1.46-.72,2.07-.4.62-.9,1.1-1.5,1.46-.6.36-1.26.55-1.97.57l-.08-.37c.87-.3,1.45-.71,1.72-1.23.27-.52.35-1.04.25-1.56-.11-.52-.29-.93-.53-1.23-.16-.22-.36-.45-.57-.7-.22-.25-.38-.53-.49-.84-.11-.31-.08-.65.08-1Z"/>
    <path d="M429.37,201.82v2.75h-4.26v-.41h.61c.71,0,1.33-.21,1.87-.62.53-.41.84-.98.92-1.72h.86ZM431.71,179.4h.41l.82,2.42-2.54,22.75h-2.26l3.57-25.17ZM430.6,202.44c-.03.41.07.8.29,1.17.22.37.63.57,1.23.59h.57v.37h-2.34v-2.13h.25ZM432.12,179.4l11.15,21.44-.94,4.31-10.99-21.24.78-4.51ZM453.4,179.4l.37,2.67-9.59,18.9c-.41.93-.72,1.72-.94,2.36-.22.64-.38,1.25-.49,1.83h-.41l-.57-2.58,11.64-23.17ZM453.76,179.4l3.69,25.17h-3.12l-2.67-20.62,1.72-4.55h.37ZM454.05,202.44h.29v2.13h-2.38v-.37h.61c.63-.03,1.05-.23,1.25-.62.21-.38.28-.76.23-1.15ZM456.22,201.82h.82c.11.74.44,1.31.98,1.72.55.41,1.16.62,1.85.62h.61v.41h-4.26v-2.75Z"/>
    <path d="M476.76,178.86h-.12c-.03-.71-.29-1.32-.8-1.82-.51-.51-1.11-.76-1.82-.76h-.53v-.41h3.28v2.99ZM476.76,201.58v2.99h-3.28v-.41h.53c.71,0,1.32-.25,1.82-.76.51-.5.77-1.11.8-1.82h.12ZM479.31,175.87v28.7h-2.67v-28.7h2.67ZM479.18,178.86v-2.99h3.28v.41h-.53c-.71,0-1.32.25-1.82.76-.51.51-.77,1.11-.8,1.82h-.12ZM479.18,201.58h.12c.03.71.29,1.32.8,1.82.51.51,1.11.76,1.82.76h.53v.41h-3.28v-2.99Z"/>
    <path d="M489.47,182.64h-.08c-.03-.66-.27-1.2-.72-1.62-.45-.42-1-.64-1.66-.64h-.49v-.41h2.95v2.67ZM489.47,201.91v2.67h-2.95v-.41h.53c.66,0,1.2-.23,1.64-.68.44-.45.67-.98.7-1.58h.08ZM492.06,179.97v24.6h-2.67v-24.6h2.67ZM500.22,179.97c2.71,0,5.04.49,7.01,1.48,1.97.98,3.48,2.4,4.55,4.24,1.07,1.85,1.6,4.04,1.6,6.58s-.53,4.73-1.6,6.56c-1.07,1.83-2.58,3.25-4.55,4.24-1.97,1-4.31,1.5-7.01,1.5h-8.73l-.08-1.23h8.82c3.17,0,5.66-.99,7.48-2.97,1.82-1.98,2.73-4.68,2.73-8.1s-.91-6.12-2.73-8.1c-1.82-1.98-4.31-2.97-7.48-2.97h-9.23v-1.23h9.23Z"/>
    <path d="M520.67,201.58c-.3.82-.26,1.46.12,1.91.38.45.82.68,1.31.68h.33v.41h-7.83v-.41h.33c.57,0,1.16-.2,1.76-.59.6-.4,1.12-1.06,1.56-1.99h2.42ZM528.59,179.4l.29,2.83-9.39,22.22h-2.58l9.72-20.83c.3-.66.55-1.22.76-1.7s.39-.95.55-1.42c.16-.46.26-.83.29-1.11h.37ZM533.43,195.02v1.23h-10.86v-1.23h10.86ZM528.59,179.4l11.27,24.93h-3.24l-8.73-21.28.7-3.65ZM535.52,201.58h3.12c.41.93.92,1.59,1.52,1.99.6.4,1.17.59,1.72.59h.33v.41h-8.41v-.41h.33c.46,0,.89-.23,1.27-.68.38-.45.42-1.09.12-1.91Z"/>
    <path d="M557.98,178.86h-.12c0-.71-.26-1.32-.78-1.82-.52-.51-1.13-.76-1.84-.76h-.49l-.04-.41h3.28v2.99ZM557.98,201.58v2.99h-3.28l.04-.41h.49c.71,0,1.33-.25,1.84-.76.52-.5.78-1.11.78-1.82h.12ZM560.53,175.87v28.7h-2.67v-28.7h2.67ZM562.86,175.87c1.91,0,3.53.29,4.86.86,1.33.57,2.33,1.37,3.01,2.4.68,1.03,1.02,2.22,1.02,3.59,0,1.15-.22,2.15-.66,3.01-.44.86-1,1.56-1.68,2.09-.68.53-1.41.91-2.17,1.13,1.45.22,2.7.7,3.75,1.44,1.05.74,1.86,1.66,2.42,2.77.56,1.11.84,2.34.84,3.71,0,1.53-.37,2.88-1.11,4.04-.74,1.16-1.82,2.06-3.26,2.71-1.44.64-3.16.96-5.19.96h-4.55c.03-.49.04-.98.04-1.48h4.35c1.42,0,2.62-.25,3.61-.76.98-.51,1.74-1.25,2.25-2.23.52-.98.78-2.16.78-3.53,0-1.53-.29-2.77-.88-3.73-.59-.96-1.35-1.68-2.28-2.17-.93-.49-1.93-.83-3.01-1-1.08-.18-2.11-.27-3.1-.27v-.37c.63,0,1.33-.07,2.09-.21.76-.14,1.5-.41,2.21-.82.71-.41,1.3-1.02,1.76-1.82.46-.81.7-1.87.7-3.18,0-1.23-.23-2.28-.68-3.16-.45-.88-1.12-1.54-2.01-1.99-.89-.45-1.99-.68-3.3-.68h-3.77s-.03-.14-.1-.35c-.07-.21-.17-.53-.31-.96h4.35Z"/>
    <path d="M581.52,201.58c-.3.82-.26,1.46.12,1.91.38.45.82.68,1.31.68h.33v.41h-7.83v-.41h.33c.57,0,1.16-.2,1.76-.59.6-.4,1.12-1.06,1.56-1.99h2.42ZM589.43,179.4l.29,2.83-9.39,22.22h-2.58l9.72-20.83c.3-.66.55-1.22.76-1.7s.39-.95.55-1.42c.16-.46.26-.83.29-1.11h.37ZM594.27,195.02v1.23h-10.86v-1.23h10.86ZM589.43,179.4l11.27,24.93h-3.24l-8.73-21.28.7-3.65ZM596.36,201.58h3.12c.41.93.92,1.59,1.52,1.99.6.4,1.17.59,1.72.59h.33v.41h-8.41v-.41h.33c.46,0,.89-.23,1.27-.68.38-.45.42-1.09.12-1.91Z"/>
    <path d="M608.13,182.6h-.08c-.03-.63-.27-1.16-.74-1.58-.47-.42-1.04-.64-1.72-.64h-.49v-.41h3.03v2.62ZM608.13,201.95l.53,2.62h-3.57v-.41h.57c.68,0,1.24-.22,1.68-.66.44-.44.67-.96.7-1.56h.08ZM610.67,179.97v24.6h-2.62v-24.6h2.62ZM610.55,182.6v-2.62h3.03v.41h-.49c-.66,0-1.22.21-1.7.64-.48.42-.72.95-.72,1.58h-.12ZM621.7,203.3l-.08,1.27h-11.03v-1.27h11.11ZM623.99,198.71l-2.25,5.86h-6.23l1.39-1.27c1.37,0,2.47-.2,3.3-.59s1.51-.94,2.03-1.64c.52-.7.97-1.48,1.35-2.36h.41Z"/>
    <path d="M629.12,182.6h-.08c-.03-.63-.27-1.16-.74-1.58-.46-.42-1.04-.64-1.72-.64h-.49v-.41h3.03v2.62ZM629.12,201.95l.53,2.62h-3.57v-.41h.57c.68,0,1.24-.22,1.68-.66.44-.44.67-.96.7-1.56h.08ZM631.66,179.97v24.6h-2.62v-24.6h2.62ZM631.54,182.6v-2.62h3.03v.41h-.49c-.66,0-1.22.21-1.7.64-.48.42-.72.95-.72,1.58h-.12ZM642.69,203.3l-.08,1.27h-11.03v-1.27h11.11ZM644.99,198.71l-2.25,5.86h-6.23l1.39-1.27c1.37,0,2.47-.2,3.3-.59s1.51-.94,2.03-1.64c.52-.7.97-1.48,1.35-2.36h.41Z"/>
    <path d="M650.11,182.55h-.08c-.03-.63-.26-1.15-.7-1.56s-1-.62-1.68-.62h-.57v-.41h3.57l-.53,2.58ZM650.11,201.95l.53,2.62h-3.57v-.41h.57c.68,0,1.24-.22,1.68-.66.44-.44.67-.96.7-1.56h.08ZM652.65,179.97v24.6h-2.62v-24.6h2.62ZM663.64,179.97v1.27h-11.07v-1.27h11.07ZM661.75,191.66v1.23h-9.18v-1.23h9.18ZM663.68,203.3l-.08,1.27h-11.03v-1.27h11.11ZM665.98,198.71l-2.25,5.86h-6.23l1.39-1.27c1.37,0,2.47-.2,3.3-.59s1.51-.94,2.03-1.64c.52-.7.97-1.48,1.35-2.36h.41ZM663.64,179.32v1.07l-4.67-.41c.85,0,1.75-.08,2.71-.23s1.61-.29,1.97-.43ZM661.75,189.4v2.34h-2.13v-.08c.57,0,1-.17,1.27-.51.27-.34.41-.74.41-1.21v-.53h.45ZM661.75,192.8v2.34h-.45v-.53c0-.46-.14-.87-.41-1.21-.27-.34-.7-.51-1.27-.51v-.08h2.13ZM663.64,181.12v2.83h-.45v-.62c0-.57-.18-1.07-.55-1.48s-.87-.62-1.5-.62v-.12h2.5Z"/>
    <path d="M682.71,179.4c1.26,0,2.44.09,3.55.27,1.11.18,2.16.45,3.16.82,1,.37,1.95.84,2.85,1.42l.9,5.78h-.37c-.38-1.61-1-2.94-1.87-3.98-.86-1.04-1.98-1.81-3.34-2.32-1.37-.51-3.01-.76-4.92-.76-2.08,0-3.9.47-5.47,1.42-1.57.94-2.79,2.28-3.67,4.02-.88,1.74-1.31,3.81-1.31,6.21s.44,4.44,1.31,6.19c.87,1.75,2.1,3.1,3.69,4.04,1.58.94,3.42,1.41,5.49,1.41,1.15,0,2.24-.12,3.28-.37,1.04-.25,2.04-.63,3.01-1.17.97-.53,1.88-1.21,2.73-2.03l.04-5.45c.03-.52-.13-.92-.47-1.19-.34-.27-.81-.41-1.42-.41h-.57v-.41h7.5v.41h-.57c-1.23,0-1.85.55-1.85,1.64v4.92c-.63.79-1.49,1.6-2.58,2.42-1.09.82-2.4,1.5-3.92,2.05-1.52.55-3.25.82-5.19.82-2.71-.03-5.06-.56-7.07-1.6-2.01-1.04-3.57-2.51-4.69-4.43-1.12-1.91-1.68-4.2-1.68-6.85s.56-4.97,1.68-6.89c1.12-1.91,2.69-3.39,4.71-4.43,2.02-1.04,4.37-1.56,7.05-1.56Z"/>
    <path d="M703.49,201.58c-.3.82-.26,1.46.12,1.91.38.45.82.68,1.31.68h.33v.41h-7.83v-.41h.33c.57,0,1.16-.2,1.76-.59.6-.4,1.12-1.06,1.56-1.99h2.42ZM711.41,179.4l.29,2.83-9.39,22.22h-2.58l9.72-20.83c.3-.66.55-1.22.76-1.7s.39-.95.55-1.42c.16-.46.26-.83.29-1.11h.37ZM716.24,195.02v1.23h-10.87v-1.23h10.87ZM711.41,179.4l11.27,24.93h-3.24l-8.73-21.28.7-3.65ZM718.33,201.58h3.12c.41.93.92,1.59,1.52,1.99.6.4,1.17.59,1.72.59h.33v.41h-8.4v-.41h.33c.46,0,.89-.23,1.27-.68.38-.45.42-1.09.12-1.91Z"/>
    <path d="M730.68,201.58c-.3.82-.26,1.46.12,1.91.38.45.82.68,1.31.68h.33v.41h-7.83v-.41h.33c.57,0,1.16-.2,1.76-.59.6-.4,1.12-1.06,1.56-1.99h2.42ZM738.59,179.4l.29,2.83-9.39,22.22h-2.58l9.72-20.83c.3-.66.55-1.22.76-1.7s.39-.95.55-1.42c.16-.46.26-.83.29-1.11h.37ZM743.43,195.02v1.23h-10.87v-1.23h10.87ZM738.59,179.4l11.27,24.93h-3.24l-8.73-21.28.7-3.65ZM745.52,201.58h3.12c.41.93.92,1.59,1.52,1.99.6.4,1.17.59,1.72.59h.33v.41h-8.4v-.41h.33c.46,0,.89-.23,1.27-.68.38-.45.42-1.09.12-1.91Z"/>
    <path d="M757.24,182.55h-.08c-.03-.63-.26-1.15-.7-1.56s-.98-.62-1.64-.62h-.57v-.41h3.49l-.49,2.58ZM757.24,201.95l.49,2.62h-3.49v-.41h.57c.66,0,1.2-.22,1.64-.66.44-.44.67-.96.7-1.56h.08ZM759.74,179.97v24.6h-2.62v-24.6h2.62ZM759.62,201.95h.12c.03.6.26,1.12.7,1.56.44.44.98.66,1.64.66h.53l.04.41h-3.53l.49-2.62ZM764.54,179.97c1.28,0,2.44.15,3.46.45,1.02.3,1.9.74,2.62,1.31.72.57,1.28,1.27,1.66,2.09s.57,1.75.57,2.79c0,1.15-.27,2.21-.82,3.2-.55.98-1.31,1.79-2.28,2.42-.97.63-2.07,1.01-3.3,1.15.46.19,1,.62,1.62,1.27.61.66,1.14,1.3,1.58,1.93.71.96,1.35,1.78,1.91,2.48s1.11,1.36,1.66,1.99c.57.63,1.1,1.18,1.58,1.64.48.46,1,.83,1.56,1.09.56.26,1.21.39,1.95.39v.41h-1.27c-1.5,0-2.74-.19-3.71-.57-.97-.38-1.76-.85-2.36-1.41-.6-.56-1.12-1.1-1.56-1.62-.11-.14-.36-.48-.76-1.04s-.83-1.17-1.29-1.82c-.46-.66-.89-1.25-1.27-1.78s-.61-.85-.7-.96c-.55-.71-1.18-1.35-1.89-1.91-.71-.56-1.46-.84-2.26-.84v-.41c.88.03,1.65.03,2.34,0,.77-.03,1.53-.09,2.3-.18.76-.1,1.48-.39,2.15-.88.67-.49,1.2-1.31,1.58-2.46.11-.3.19-.66.25-1.07.05-.41.07-.83.04-1.27-.03-.76-.17-1.45-.43-2.05-.26-.6-.63-1.12-1.11-1.56-.48-.44-1.05-.78-1.7-1.03-.66-.25-1.39-.38-2.21-.41-1.29-.05-2.41-.07-3.36-.04-.96.03-1.43.03-1.43,0s-.03-.14-.1-.35-.17-.51-.31-.92h5.29Z"/>
    <path d="M782.91,182.64h-.08c-.03-.66-.27-1.2-.72-1.62-.45-.42-1-.64-1.66-.64h-.49v-.41h2.95v2.67ZM782.91,201.91v2.67h-2.95v-.41h.53c.66,0,1.2-.23,1.64-.68.44-.45.67-.98.7-1.58h.08ZM785.49,179.97v24.6h-2.67v-24.6h2.67ZM793.65,179.97c2.71,0,5.04.49,7.01,1.48s3.49,2.4,4.55,4.24c1.07,1.85,1.6,4.04,1.6,6.58s-.53,4.73-1.6,6.56c-1.07,1.83-2.58,3.25-4.55,4.24s-4.3,1.5-7.01,1.5h-8.73l-.08-1.23h8.82c3.17,0,5.66-.99,7.48-2.97,1.82-1.98,2.73-4.68,2.73-8.1s-.91-6.12-2.73-8.1c-1.82-1.98-4.31-2.97-7.48-2.97h-9.23v-1.23h9.23Z"/>
    <g>
      <path d="M828.91,200.87c-.29-.06-.58-.15-.87-.25-.28-.1-.56-.21-.84-.34-.55-.25-1.07-.56-1.57-.92-.99-.72-1.84-1.65-2.46-2.73-.62-1.08-.98-2.29-1.07-3.5-.04-.61-.02-1.21.07-1.81.05-.3.1-.59.18-.88.08-.29.17-.57.28-.85l.08.88c.03.29.06.57.1.86.08.56.17,1.11.3,1.65.26,1.07.65,2.09,1.19,3.03.53.94,1.22,1.8,2,2.6.39.4.81.78,1.24,1.16.22.19.44.37.67.55l.69.55Z" fill="#42ade2"/>
      <path d="M828.74,203.14c-.21.1-.43.17-.66.23-.22.06-.45.11-.68.15-.46.08-.93.1-1.41.08-.95-.05-1.91-.31-2.76-.77-.85-.46-1.6-1.13-2.13-1.91-.27-.39-.49-.81-.66-1.24-.08-.22-.15-.44-.21-.66-.05-.22-.1-.45-.11-.68.16.17.3.34.45.51.14.17.29.33.44.49.29.32.59.62.9.9.61.56,1.27,1.04,1.97,1.42.71.38,1.47.68,2.28.91.41.12.82.21,1.25.3.22.05.43.09.66.13.22.04.44.08.67.14Z" fill="#42ade2"/>
      <path d="M842.83,172.77c.3.08.59.18.88.29.29.11.57.25.84.39.55.29,1.07.63,1.56,1.01.97.77,1.8,1.75,2.37,2.87.57,1.11.88,2.35.9,3.57,0,.61-.05,1.22-.17,1.81-.06.3-.14.59-.23.87-.09.29-.2.56-.34.83l-.03-.88c-.01-.29-.03-.58-.05-.86-.04-.57-.11-1.13-.22-1.67-.21-1.09-.55-2.13-1.05-3.1-.5-.97-1.14-1.87-1.9-2.72-.38-.42-.79-.83-1.22-1.23-.21-.2-.43-.4-.66-.59l-.68-.59Z" fill="#42ade2"/>
      <path d="M848.31,172.48c.22.06.43.14.65.24.21.09.41.2.61.31.4.23.77.5,1.11.82.68.62,1.23,1.41,1.57,2.27.35.87.47,1.81.37,2.72-.05.45-.16.89-.31,1.32-.08.21-.17.42-.27.61-.1.2-.22.39-.35.57,0-.22,0-.44,0-.65,0-.21,0-.43-.01-.63-.01-.42-.04-.82-.09-1.22-.1-.79-.28-1.54-.56-2.26-.28-.72-.67-1.41-1.12-2.08-.23-.34-.48-.67-.74-1-.13-.17-.27-.33-.41-.5-.14-.17-.28-.34-.42-.52Z" fill="#42ade2"/>
      <path d="M825.12,181.79c-1.23.59-1.7,2.05-1.11,3.29l7.88,16.46,4.36-2.08-7.88-16.46c-.59-1.24-2.03-1.8-3.26-1.21Z" fill="#ffdd67"/>
      <path d="M845.83,194.89l4.65-2.22-8.98-18.78c-.6-1.26-2.14-1.81-3.42-1.2h-.01c-1.28.62-1.82,2.16-1.2,3.46l8.97,18.74Z" fill="#ffdd67"/>
      <path d="M838.07,172.7h-.01c-.14.07-.27.15-.39.24,1.18-.32,2.46.23,2.99,1.35l8.98,18.78.83-.39-8.98-18.78c-.6-1.26-2.14-1.81-3.42-1.2Z" fill="#eba352"/>
      <path d="M836.26,199.46l4.78-2.29-9.17-19.16c-.64-1.34-2.23-1.91-3.55-1.28h0c-1.32.64-1.87,2.23-1.23,3.57l9.17,19.16Z" fill="#ffdd67"/>
      <path d="M828.32,176.74h0c-.14.07-.27.15-.39.24,1.22-.34,2.55.24,3.12,1.43l5.71,11.92,1.4.81-6.28-13.13c-.64-1.34-2.23-1.91-3.55-1.28Z" fill="#eba352"/>
      <path d="M840.3,195.62l4.79-2.29-9.17-19.16c-.64-1.34-2.23-1.91-3.55-1.28h0c-1.32.63-1.87,2.23-1.23,3.57l9.17,19.16Z" fill="#ffdd67"/>
      <path d="M832.37,172.89h0c-.14.07-.27.15-.39.24,1.22-.34,2.55.24,3.12,1.44l6.45,13.48,1.4.81-7.03-14.68c-.64-1.34-2.23-1.91-3.55-1.28Z" fill="#eba352"/>
      <path d="M825.12,181.79c-.14.07-.27.15-.39.24,1.12-.29,2.3.27,2.82,1.36l4.68,9.79,1.4.81-5.26-10.99c-.6-1.24-2.03-1.8-3.26-1.21Z" fill="#eba352"/>
      <path d="M856.84,179.96c-1.7-1.3-4.47.13-5.83,4.65-.95,3.16-1.05,4.04-3.06,5l-1.1-2.3s-17.73,8.56-17.06,9.96c0,0,2.15,6.61,5.74,9.7,5.35,4.6,17.91-.33,18.48-12.22.33-7.01,4.69-13.35,2.83-14.78Z" fill="#ffdd67"/>
      <path d="M856.84,179.96c-.32-.25-.68-.39-1.06-.44.08.05.16.09.24.15,1.86,1.43-.05,4.76-1.14,7.75-.88,2.4-1.59,4.83-1.48,7.19.5,10.31-9.89,15.27-16.15,13.41,6.12,2.59,17.5-2.34,16.98-13.12-.12-2.36.57-4.67,1.48-7.19,1.07-2.99,2.99-6.32,1.14-7.75Z" fill="#eba352"/>
      <path d="M848.55,189.3c-3.86.43-9.59,5.97-5.58,12.06-2.92-6.1,1.88-10.26,4.93-11.72.36-.17.65-.34.65-.34Z" fill="#eba352"/>
    </g>
  </g>
  <g>
    <rect y="208.96" width="1200" height="46.22" fill="none"/>
    <path d="M312.99,234.06h-1.98c-.2-.55-.52-.95-.96-1.19-.44-.24-.85-.36-1.24-.36h-.2v-.25h5.55v.25h-.22c-.32,0-.6.13-.84.4s-.28.65-.11,1.15ZM310.44,232.41h2.02l4.65,14.92-.42,2.72-6.25-17.65ZM321.64,231.86l.2,2.03-4.4,13.4c-.17.58-.29,1.09-.38,1.51-.08.43-.13.85-.15,1.26h-.22l-.45-2.22,5.17-15.98h.23ZM321.64,231.88l5.25,14.72-.55,3.45-5.55-15.47.85-2.7ZM331.79,232.41l-4.67,14.88c-.17.6-.3,1.11-.39,1.54s-.15.84-.16,1.24h-.23l-.3-2.47,4.35-15.17h1.4ZM329.92,234.06c.13-.5.09-.88-.12-1.15s-.49-.4-.82-.4h-.23v-.25h4.92v.25h-.2c-.38,0-.8.12-1.25.36-.45.24-.77.64-.95,1.19h-1.35Z"/>
    <path d="M335.87,236.36h-.08c-.02-.38-.16-.7-.44-.96s-.61-.39-1.01-.39h-.3v-.25h1.83v1.6ZM335.87,248.16v1.6h-1.83v-.25h.3c.4,0,.74-.13,1.01-.4.27-.27.42-.58.44-.95h.08ZM337.39,234.76v15h-1.6v-15h1.6ZM346.87,241.98v.75h-9.75v-.75h9.75ZM337.32,236.36v-1.6h1.83v.25h-.3c-.4,0-.74.13-1.02.39-.28.26-.42.58-.42.96h-.08ZM337.32,248.16h.08c0,.37.14.68.42.95.28.27.62.4,1.02.4h.3v.25h-1.83v-1.6ZM346.69,236.36h-.07c-.02-.38-.16-.7-.44-.96-.28-.26-.61-.39-1.01-.39h-.3v-.25h1.82v1.6ZM346.69,248.16v1.6h-1.82v-.25h.3c.4,0,.74-.13,1.01-.4.27-.27.42-.58.44-.95h.07ZM348.22,234.76v15h-1.6v-15h1.6ZM348.14,236.36v-1.6h1.82v.25h-.3c-.4,0-.74.13-1.01.39-.27.26-.42.58-.44.96h-.07ZM348.14,248.16h.07c.02.37.16.68.44.95.28.27.61.4,1.01.4h.3v.25h-1.82v-1.6Z"/>
    <path d="M354.54,236.33h-.05c-.02-.38-.16-.7-.42-.95s-.61-.38-1.02-.38h-.35v-.25h2.17l-.32,1.58ZM354.54,248.16l.32,1.6h-2.17v-.25h.35c.42,0,.76-.13,1.02-.4.27-.27.41-.58.42-.95h.05ZM356.09,234.76v15h-1.6v-15h1.6ZM362.79,234.76v.78h-6.75v-.78h6.75ZM361.64,241.88v.75h-5.6v-.75h5.6ZM362.82,248.98l-.05.78h-6.73v-.78h6.77ZM364.22,246.18l-1.38,3.58h-3.8l.85-.78c.83,0,1.5-.12,2.01-.36.51-.24.92-.58,1.24-1,.32-.42.59-.9.82-1.44h.25ZM362.79,234.36v.65l-2.85-.25c.52,0,1.07-.05,1.65-.14.58-.09.98-.18,1.2-.26ZM361.64,240.51v1.42h-1.3v-.05c.35,0,.61-.1.77-.31.17-.21.25-.45.25-.74v-.33h.28ZM361.64,242.58v1.42h-.28v-.33c0-.28-.08-.53-.25-.74-.17-.21-.42-.31-.77-.31v-.05h1.3ZM362.79,235.46v1.72h-.27v-.38c0-.35-.11-.65-.34-.9-.22-.25-.53-.38-.91-.38v-.08h1.52Z"/>
    <path d="M367.92,236.33h-.05c-.02-.38-.16-.7-.42-.95-.27-.25-.6-.38-1-.38h-.35v-.25h2.12l-.3,1.58ZM367.92,248.16l.3,1.6h-2.12v-.25h.35c.4,0,.73-.13,1-.4.27-.27.41-.58.42-.95h.05ZM369.44,234.76v15h-1.6v-15h1.6ZM369.37,248.16h.08c.02.37.16.68.42.95.27.27.6.4,1,.4h.33l.02.25h-2.15l.3-1.6ZM372.37,234.76c.78,0,1.49.09,2.11.28s1.16.45,1.6.8c.44.35.78.77,1.01,1.27s.35,1.07.35,1.7c0,.7-.17,1.35-.5,1.95-.33.6-.8,1.09-1.39,1.47-.59.38-1.26.62-2.01.7.28.12.61.38.99.78.38.4.7.79.96,1.17.43.58.82,1.09,1.16,1.51.34.42.68.83,1.01,1.21.35.38.67.72.96,1,.29.28.61.5.95.66s.74.24,1.19.24v.25h-.77c-.92,0-1.67-.12-2.26-.35-.59-.23-1.07-.52-1.44-.86-.37-.34-.68-.67-.95-.99-.07-.08-.22-.3-.46-.64-.24-.34-.5-.71-.79-1.11-.28-.4-.54-.76-.77-1.09-.23-.33-.38-.52-.43-.59-.33-.43-.72-.82-1.15-1.16-.43-.34-.89-.51-1.38-.51v-.25c.53.02,1.01.02,1.43,0,.47-.02.93-.05,1.4-.11.47-.06.9-.24,1.31-.54.41-.3.73-.8.96-1.5.07-.18.12-.4.15-.65.03-.25.04-.51.02-.78-.02-.47-.1-.88-.26-1.25-.16-.37-.38-.68-.68-.95s-.64-.47-1.04-.62c-.4-.15-.85-.23-1.35-.25-.78-.03-1.47-.04-2.05-.02s-.88.02-.88,0-.02-.09-.06-.21-.1-.31-.19-.56h3.23Z"/>
    <path d="M383.62,236.33h-.05c-.02-.38-.16-.7-.42-.95s-.61-.38-1.02-.38h-.35v-.25h2.17l-.32,1.58ZM383.62,248.16l.32,1.6h-2.17v-.25h.35c.42,0,.76-.13,1.02-.4.27-.27.41-.58.42-.95h.05ZM385.17,234.76v15h-1.6v-15h1.6ZM391.87,234.76v.78h-6.75v-.78h6.75ZM390.72,241.88v.75h-5.6v-.75h5.6ZM391.89,248.98l-.05.78h-6.73v-.78h6.77ZM393.29,246.18l-1.38,3.58h-3.8l.85-.78c.83,0,1.5-.12,2.01-.36.51-.24.92-.58,1.24-1,.32-.42.59-.9.82-1.44h.25ZM391.87,234.36v.65l-2.85-.25c.52,0,1.07-.05,1.65-.14.58-.09.98-.18,1.2-.26ZM390.72,240.51v1.42h-1.3v-.05c.35,0,.61-.1.77-.31.17-.21.25-.45.25-.74v-.33h.28ZM390.72,242.58v1.42h-.28v-.33c0-.28-.08-.53-.25-.74-.17-.21-.42-.31-.77-.31v-.05h1.3ZM391.87,235.46v1.72h-.27v-.38c0-.35-.11-.65-.34-.9-.22-.25-.53-.38-.91-.38v-.08h1.52Z"/>
    <path d="M416.94,243.46l-.27,3.42c-.43.67-1,1.24-1.7,1.72-.7.48-1.49.85-2.38,1.11-.88.26-1.82.39-2.8.39-1.68-.02-3.15-.34-4.39-.97s-2.2-1.53-2.86-2.7c-.67-1.17-1-2.56-1-4.17s.33-3.03,1-4.2c.67-1.17,1.62-2.07,2.86-2.7,1.24-.63,2.7-.95,4.39-.95,1.03,0,2.08.13,3.12.4s1.96.64,2.73,1.12l.55,3.53h-.23c-.37-1.53-1.1-2.63-2.21-3.3-1.11-.67-2.44-1-3.99-1-1.32,0-2.45.29-3.41.86-.96.58-1.7,1.39-2.23,2.45s-.79,2.32-.79,3.79.26,2.68.79,3.74c.52,1.06,1.27,1.88,2.24,2.45.97.58,2.11.87,3.42.89,1.25,0,2.38-.2,3.39-.61,1.01-.41,1.83-1.05,2.46-1.91.63-.87.99-1.98,1.07-3.35h.23Z"/>
    <path d="M428.09,234.41c1.17,0,2.26.19,3.29.56s1.93.91,2.7,1.61,1.38,1.53,1.81,2.49c.43.96.65,2.02.65,3.19s-.22,2.23-.65,3.19c-.43.96-1.04,1.79-1.81,2.49s-1.68,1.24-2.7,1.61-2.12.56-3.29.56-2.26-.19-3.27-.56-1.91-.91-2.69-1.61-1.38-1.53-1.81-2.49c-.43-.96-.65-2.02-.65-3.19s.22-2.23.65-3.19c.43-.96,1.04-1.79,1.81-2.49s1.67-1.24,2.69-1.61,2.11-.56,3.27-.56ZM428.09,249.36c1.23,0,2.35-.3,3.35-.9,1-.6,1.79-1.43,2.38-2.5s.88-2.3.88-3.7-.29-2.65-.88-3.71c-.58-1.06-1.38-1.89-2.38-2.49-1-.6-2.12-.9-3.35-.9s-2.32.3-3.32.9c-1,.6-1.79,1.43-2.38,2.49-.58,1.06-.88,2.3-.88,3.71s.29,2.63.88,3.7c.58,1.07,1.38,1.9,2.38,2.5,1,.6,2.11.9,3.32.9Z"/>
    <path d="M440.56,236.38h-.05c-.02-.4-.16-.73-.44-.99s-.61-.39-1.01-.39h-.3v-.25h1.8v1.62ZM440.56,248.13v1.62h-1.8v-.25h.33c.4,0,.73-.14,1-.41.27-.28.41-.6.42-.96h.05ZM442.14,234.76v15h-1.62v-15h1.62ZM447.11,234.76c1.65,0,3.07.3,4.27.9,1.2.6,2.12,1.46,2.77,2.59s.98,2.46.98,4.01-.33,2.88-.98,4c-.65,1.12-1.57,1.98-2.77,2.59s-2.62.91-4.27.91h-5.33l-.05-.75h5.38c1.93,0,3.45-.6,4.56-1.81,1.11-1.21,1.66-2.85,1.66-4.94s-.55-3.73-1.66-4.94c-1.11-1.21-2.63-1.81-4.56-1.81h-5.62v-.75h5.62Z"/>
    <path d="M459.24,236.33h-.05c-.02-.38-.16-.7-.42-.95s-.61-.38-1.02-.38h-.35v-.25h2.17l-.32,1.58ZM459.24,248.16l.32,1.6h-2.17v-.25h.35c.42,0,.76-.13,1.02-.4.27-.27.41-.58.42-.95h.05ZM460.79,234.76v15h-1.6v-15h1.6ZM467.49,234.76v.78h-6.75v-.78h6.75ZM466.34,241.88v.75h-5.6v-.75h5.6ZM467.51,248.98l-.05.78h-6.73v-.78h6.77ZM468.91,246.18l-1.38,3.58h-3.8l.85-.78c.83,0,1.5-.12,2.01-.36.51-.24.92-.58,1.24-1,.32-.42.59-.9.82-1.44h.25ZM467.49,234.36v.65l-2.85-.25c.52,0,1.07-.05,1.65-.14.58-.09.98-.18,1.2-.26ZM466.34,240.51v1.42h-1.3v-.05c.35,0,.61-.1.77-.31.17-.21.25-.45.25-.74v-.33h.28ZM466.34,242.58v1.42h-.28v-.33c0-.28-.08-.53-.25-.74-.17-.21-.42-.31-.77-.31v-.05h1.3ZM467.49,235.46v1.72h-.27v-.38c0-.35-.11-.65-.34-.9-.22-.25-.53-.38-.91-.38v-.08h1.52Z"/>
    <path d="M471.04,248.13c.12-.23.3-.39.55-.46.25-.07.5-.06.76.05.26.11.45.33.59.66.2.47.28.91.24,1.34-.04.42-.17.8-.39,1.14-.22.33-.5.6-.84.8-.34.2-.71.31-1.11.32l-.05-.2c.5-.17.83-.39.98-.68s.2-.57.14-.86-.15-.52-.29-.69c-.1-.13-.21-.27-.34-.4-.12-.13-.22-.29-.27-.46-.06-.17-.05-.36.04-.56Z"/>
    <path d="M483.71,236.38h-.05c-.02-.4-.16-.73-.44-.99s-.61-.39-1.01-.39h-.3v-.25h1.8v1.62ZM483.71,248.13v1.62h-1.8v-.25h.33c.4,0,.73-.14,1-.41.27-.28.41-.6.42-.96h.05ZM485.29,234.76v15h-1.62v-15h1.62ZM490.26,234.76c1.65,0,3.07.3,4.27.9,1.2.6,2.12,1.46,2.77,2.59s.98,2.46.98,4.01-.33,2.88-.98,4c-.65,1.12-1.57,1.98-2.77,2.59s-2.62.91-4.27.91h-5.33l-.05-.75h5.38c1.93,0,3.45-.6,4.56-1.81,1.11-1.21,1.66-2.85,1.66-4.94s-.55-3.73-1.66-4.94c-1.11-1.21-2.63-1.81-4.56-1.81h-5.62v-.75h5.62Z"/>
    <path d="M502.39,236.33h-.05c-.02-.38-.16-.7-.42-.95s-.61-.38-1.02-.38h-.35v-.25h2.17l-.32,1.58ZM502.39,248.16l.32,1.6h-2.17v-.25h.35c.42,0,.76-.13,1.02-.4.27-.27.41-.58.42-.95h.05ZM503.94,234.76v15h-1.6v-15h1.6ZM510.64,234.76v.78h-6.75v-.78h6.75ZM509.49,241.88v.75h-5.6v-.75h5.6ZM510.66,248.98l-.05.78h-6.73v-.78h6.77ZM512.06,246.18l-1.38,3.58h-3.8l.85-.78c.83,0,1.5-.12,2.01-.36.51-.24.92-.58,1.24-1,.32-.42.59-.9.82-1.44h.25ZM510.64,234.36v.65l-2.85-.25c.52,0,1.07-.05,1.65-.14.58-.09.98-.18,1.2-.26ZM509.49,240.51v1.42h-1.3v-.05c.35,0,.61-.1.77-.31.17-.21.25-.45.25-.74v-.33h.28ZM509.49,242.58v1.42h-.28v-.33c0-.28-.08-.53-.25-.74-.17-.21-.42-.31-.77-.31v-.05h1.3ZM510.64,235.46v1.72h-.27v-.38c0-.35-.11-.65-.34-.9-.22-.25-.53-.38-.91-.38v-.08h1.52Z"/>
    <path d="M518.66,234.41c.47,0,.88.02,1.23.05.35.03.65.07.91.11.26.04.48.09.68.15.19.06.36.11.51.16l.03,2.47h-.3c0-.68-.23-1.22-.7-1.61-.47-.39-1.19-.59-2.18-.59-.83,0-1.55.23-2.14.69-.59.46-.88,1.02-.86,1.69,0,.22.03.44.09.66s.16.45.3.66c.14.22.34.43.59.65l5.05,3.9c.38.32.67.72.85,1.21.18.49.28.98.3,1.46.02.73-.18,1.41-.58,2.02-.4.62-.94,1.1-1.61,1.46-.68.36-1.42.54-2.24.54-.48,0-1-.04-1.56-.12-.56-.08-1.08-.21-1.56-.39-.48-.18-.88-.4-1.2-.66-.05-.23-.08-.53-.08-.89s.03-.74.09-1.14c.06-.4.14-.76.24-1.08h.3c-.07.75.04,1.39.33,1.92.28.53.7.94,1.25,1.21.55.27,1.19.4,1.92.39,1.03-.03,1.85-.29,2.44-.79.59-.49.89-1.15.89-1.96,0-.4-.07-.76-.21-1.09s-.37-.63-.69-.91l-5-3.85c-.47-.4-.78-.84-.95-1.33-.17-.48-.25-.94-.25-1.38,0-.68.18-1.3.55-1.85s.86-.99,1.49-1.31,1.32-.49,2.09-.49ZM521.96,234.63l.02.45h-1.77v-.45h1.75Z"/>
    <path d="M527.86,236.36h-.08c-.02-.38-.19-.7-.51-.96-.33-.26-.72-.39-1.19-.39h-.35v-.25h2.12v1.6ZM527.86,248.16v1.6h-2.12v-.25h.35c.47,0,.86-.13,1.19-.4.32-.27.5-.58.51-.95h.08ZM529.36,234.76v15h-1.58v-15h1.58ZM529.29,236.36v-1.6h2.12l-.02.25h-.32c-.47,0-.86.13-1.19.39-.33.26-.5.58-.51.96h-.08ZM529.29,248.16h.08c.02.37.19.68.51.95.32.27.72.4,1.19.4h.32l.02.25h-2.12v-1.6Z"/>
    <path d="M541.84,234.41c.77,0,1.49.05,2.16.16.68.11,1.32.28,1.93.5.61.22,1.19.51,1.74.86l.55,3.53h-.23c-.23-.98-.61-1.79-1.14-2.42-.52-.63-1.2-1.1-2.04-1.41-.83-.31-1.83-.46-3-.46-1.27,0-2.38.29-3.34.86s-1.7,1.39-2.24,2.45c-.53,1.06-.8,2.32-.8,3.79s.27,2.71.8,3.78c.53,1.07,1.28,1.89,2.25,2.46.97.58,2.08.86,3.35.86.7,0,1.37-.07,2-.22.63-.15,1.25-.39,1.84-.71.59-.32,1.15-.74,1.66-1.24l.02-3.33c.02-.32-.08-.56-.29-.72-.21-.17-.5-.25-.86-.25h-.35v-.25h4.57v.25h-.35c-.75,0-1.12.33-1.12,1v3c-.38.48-.91.97-1.58,1.47-.67.5-1.46.92-2.39,1.25-.92.33-1.98.5-3.16.5-1.65-.02-3.09-.34-4.31-.97-1.23-.63-2.18-1.53-2.86-2.7-.68-1.17-1.02-2.56-1.02-4.17s.34-3.03,1.02-4.2c.68-1.17,1.64-2.07,2.88-2.7,1.23-.63,2.67-.95,4.3-.95Z"/>
    <path d="M553.69,248.21v1.55h-1.88v-.25h.42c.38,0,.71-.12.98-.38s.4-.56.4-.92h.08ZM553.64,234.38l1.07,1.4.02,13.97h-1.12v-12.25c0-.85-.07-1.89-.22-3.12h.25ZM553.64,234.38l13.85,13.05.25,2.67-13.85-13.12-.25-2.6ZM554.74,248.21c0,.37.14.67.41.92s.6.38.96.38h.43v.25h-1.88v-1.55h.07ZM566.64,236.31c-.02-.37-.16-.67-.43-.92s-.59-.38-.98-.38h-.42v-.25h1.88v1.55h-.05ZM567.74,234.76v12.15c0,.53.02,1.05.05,1.54.03.49.09,1.05.17,1.66h-.23l-1.1-1.32v-14.03h1.1ZM567.66,236.31v-1.55h1.88v.25h-.43c-.37,0-.69.12-.96.38s-.41.56-.41.92h-.07Z"/>
    <path d="M571.79,248.13c.12-.23.3-.39.55-.46.25-.07.5-.06.76.05.26.11.45.33.59.66.2.47.28.91.24,1.34-.04.42-.17.8-.39,1.14-.22.33-.5.6-.84.8-.34.2-.71.31-1.11.32l-.05-.2c.5-.17.83-.39.98-.68s.2-.57.14-.86-.15-.52-.29-.69c-.1-.13-.21-.27-.34-.4-.12-.13-.22-.29-.27-.46-.06-.17-.05-.36.04-.56Z"/>
    <path d="M584.86,247.93c-.18.5-.16.89.07,1.16.23.27.5.41.8.41h.2v.25h-4.77v-.25h.2c.35,0,.71-.12,1.07-.36s.68-.65.95-1.21h1.48ZM589.69,234.41l.18,1.72-5.73,13.55h-1.58l5.93-12.7c.18-.4.34-.75.46-1.04.12-.29.24-.58.34-.86s.16-.51.17-.67h.23ZM592.64,243.93v.75h-6.62v-.75h6.62ZM589.69,234.41l6.88,15.2h-1.98l-5.32-12.97.42-2.22ZM593.91,247.93h1.9c.25.57.56.97.93,1.21.37.24.72.36,1.05.36h.2v.25h-5.12v-.25h.2c.28,0,.54-.14.77-.41.23-.28.26-.66.08-1.16Z"/>
    <path d="M600.61,248.21v1.55h-1.88v-.25h.42c.38,0,.71-.12.98-.38s.4-.56.4-.92h.08ZM600.56,234.38l1.07,1.4.03,13.97h-1.12v-12.25c0-.85-.07-1.89-.22-3.12h.25ZM600.56,234.38l13.85,13.05.25,2.67-13.85-13.12-.25-2.6ZM601.66,248.21c0,.37.14.67.41.92.28.25.6.38.96.38h.42v.25h-1.88v-1.55h.08ZM613.56,236.31c-.02-.37-.16-.67-.43-.92s-.59-.38-.97-.38h-.42v-.25h1.88v1.55h-.05ZM614.66,234.76v12.15c0,.53.02,1.05.05,1.54.03.49.09,1.05.17,1.66h-.22l-1.1-1.32v-14.03h1.1ZM614.59,236.31v-1.55h1.88v.25h-.42c-.37,0-.69.12-.96.38-.27.25-.41.56-.41.92h-.08Z"/>
    <path d="M620.51,236.38h-.05c-.02-.4-.16-.73-.44-.99-.28-.26-.61-.39-1.01-.39h-.3v-.25h1.8v1.62ZM620.51,248.13v1.62h-1.8v-.25h.33c.4,0,.73-.14,1-.41.27-.28.41-.6.42-.96h.05ZM622.09,234.76v15h-1.62v-15h1.62ZM627.06,234.76c1.65,0,3.08.3,4.28.9,1.2.6,2.12,1.46,2.77,2.59.65,1.12.98,2.46.98,4.01s-.33,2.88-.98,4c-.65,1.12-1.57,1.98-2.77,2.59s-2.62.91-4.28.91h-5.33l-.05-.75h5.38c1.93,0,3.45-.6,4.56-1.81,1.11-1.21,1.66-2.85,1.66-4.94s-.55-3.73-1.66-4.94c-1.11-1.21-2.63-1.81-4.56-1.81h-5.62v-.75h5.62Z"/>
    <path d="M645.64,232.26v1.5h-.08c0-.37-.13-.67-.39-.9-.26-.23-.57-.35-.94-.35h-.4v-.25h1.8ZM647.19,232.26v11c0,1.2.22,2.26.66,3.17.44.92,1.06,1.63,1.86,2.14.8.51,1.72.76,2.77.76,1.12,0,2.09-.24,2.93-.73.83-.48,1.48-1.15,1.95-2.01s.7-1.86.7-3.01v-11.33h1.17v11.33c0,1.3-.28,2.44-.84,3.41-.56.98-1.35,1.74-2.36,2.29-1.02.55-2.2.82-3.55.82s-2.6-.27-3.64-.81c-1.04-.54-1.85-1.3-2.43-2.27-.57-.98-.86-2.11-.86-3.41v-11.35h1.62ZM648.91,232.26v.25h-.4c-.37,0-.68.12-.94.35-.26.23-.39.53-.39.9h-.05v-1.5h1.78ZM658.14,232.26v1.5h-.08c0-.37-.13-.67-.39-.9-.26-.23-.57-.35-.94-.35h-.4v-.25h1.8ZM660.96,232.26v.25h-.4c-.37,0-.68.12-.94.35-.26.23-.39.53-.39.9h-.05v-1.5h1.78Z"/>
    <path d="M666.44,247.96c-.15.23-.19.47-.12.71.07.24.2.44.39.6s.4.24.61.24h.32v.25h-5.67v-.25h.35c.53,0,1.02-.15,1.47-.45s.81-.64,1.08-1.02l1.58-.08ZM668.44,232.26v.25h-.3c-.22,0-.42.08-.61.24-.19.16-.32.36-.38.6-.06.24-.02.48.11.71l-2-.08c-.27-.38-.62-.72-1.06-1.02s-.93-.45-1.46-.45h-.35v-.25h6.05ZM669.94,240.46l.57,1.08-5.2,8.2h-1.6l6.23-9.27ZM666.11,232.26l11.12,17.47h-2l-11.08-17.47h1.95ZM676.86,232.26l-5.88,8.65-.85-.6,5.1-8.05h1.62ZM678.56,232.26v.25h-.35c-.52,0-1,.15-1.44.45s-.8.64-1.09,1.02l-1.6.08c.15-.23.2-.47.14-.71-.06-.24-.18-.44-.36-.6-.18-.16-.39-.24-.62-.24h-.3v-.25h5.62ZM674.11,247.96l2.05.1c.27.38.62.72,1.08,1.01.45.29.93.44,1.45.44h.35v.25h-6.1v-.25h.3c.35,0,.64-.17.86-.5.22-.33.23-.68.01-1.05Z"/>
    <path d="M701.66,243.46l-.28,3.42c-.43.67-1,1.24-1.7,1.72-.7.48-1.49.85-2.38,1.11-.88.26-1.82.39-2.8.39-1.68-.02-3.15-.34-4.39-.97-1.24-.63-2.2-1.53-2.86-2.7-.67-1.17-1-2.56-1-4.17s.33-3.03,1-4.2c.67-1.17,1.62-2.07,2.86-2.7,1.24-.63,2.7-.95,4.39-.95,1.03,0,2.08.13,3.12.4s1.96.64,2.73,1.12l.55,3.53h-.23c-.37-1.53-1.1-2.63-2.21-3.3-1.11-.67-2.44-1-3.99-1-1.32,0-2.46.29-3.41.86s-1.7,1.39-2.22,2.45c-.53,1.06-.79,2.32-.79,3.79s.26,2.68.79,3.74c.52,1.06,1.27,1.88,2.24,2.45s2.11.87,3.42.89c1.25,0,2.38-.2,3.39-.61,1.01-.41,1.83-1.05,2.46-1.91.63-.87.99-1.98,1.07-3.35h.23Z"/>
    <path d="M712.81,234.41c1.17,0,2.26.19,3.29.56,1.02.38,1.92.91,2.7,1.61.78.7,1.38,1.53,1.81,2.49.43.96.65,2.02.65,3.19s-.22,2.23-.65,3.19c-.43.96-1.04,1.79-1.81,2.49-.77.7-1.67,1.24-2.7,1.61-1.03.38-2.12.56-3.29.56s-2.26-.19-3.27-.56c-1.02-.38-1.91-.91-2.69-1.61-.78-.7-1.38-1.53-1.81-2.49-.43-.96-.65-2.02-.65-3.19s.22-2.23.65-3.19c.43-.96,1.04-1.79,1.81-2.49.77-.7,1.67-1.24,2.69-1.61,1.02-.38,2.11-.56,3.27-.56ZM712.81,249.36c1.23,0,2.35-.3,3.35-.9,1-.6,1.79-1.43,2.38-2.5.58-1.07.88-2.3.88-3.7s-.29-2.65-.88-3.71c-.58-1.06-1.38-1.89-2.38-2.49-1-.6-2.12-.9-3.35-.9s-2.33.3-3.33.9c-1,.6-1.79,1.43-2.38,2.49-.58,1.06-.88,2.3-.88,3.71s.29,2.63.88,3.7c.58,1.07,1.38,1.9,2.38,2.5,1,.6,2.11.9,3.33.9Z"/>
    <path d="M725.04,248.08v1.67h-2.6v-.25h.38c.43,0,.81-.12,1.14-.38.32-.25.51-.6.56-1.05h.52ZM726.46,234.41h.25l.5,1.47-1.55,13.88h-1.38l2.17-15.35ZM725.79,248.46c-.02.25.04.49.17.71.13.23.38.35.75.36h.35v.22h-1.42v-1.3h.15ZM726.71,234.41l6.8,13.07-.58,2.62-6.7-12.95.47-2.75ZM739.69,234.41l.22,1.62-5.85,11.52c-.25.57-.44,1.05-.58,1.44-.13.39-.23.76-.3,1.11h-.25l-.35-1.57,7.1-14.12ZM739.91,234.41l2.25,15.35h-1.9l-1.62-12.58,1.05-2.77h.22ZM740.09,248.46h.18v1.3h-1.45v-.22h.38c.38-.02.64-.14.76-.38s.17-.47.14-.7ZM741.41,248.08h.5c.07.45.27.8.6,1.05.33.25.71.38,1.12.38h.38v.25h-2.6v-1.67Z"/>
    <path d="M747.41,236.33h-.05c-.02-.38-.16-.7-.42-.95s-.61-.38-1.03-.38h-.35v-.25h2.17l-.33,1.58ZM747.41,248.16l.33,1.6h-2.17v-.25h.35c.42,0,.76-.13,1.03-.4.27-.27.41-.58.42-.95h.05ZM748.96,234.76v15h-1.6v-15h1.6ZM755.66,234.76v.78h-6.75v-.78h6.75ZM754.51,241.88v.75h-5.6v-.75h5.6ZM755.69,248.98l-.05.78h-6.73v-.78h6.78ZM757.09,246.18l-1.38,3.58h-3.8l.85-.78c.83,0,1.5-.12,2.01-.36.51-.24.92-.58,1.24-1,.32-.42.59-.9.83-1.44h.25ZM755.66,234.36v.65l-2.85-.25c.52,0,1.07-.05,1.65-.14.58-.09.98-.18,1.2-.26ZM754.51,240.51v1.42h-1.3v-.05c.35,0,.61-.1.77-.31.17-.21.25-.45.25-.74v-.33h.28ZM754.51,242.58v1.42h-.28v-.33c0-.28-.08-.53-.25-.74-.17-.21-.42-.31-.77-.31v-.05h1.3ZM755.66,235.46v1.72h-.27v-.38c0-.35-.11-.65-.34-.9-.22-.25-.53-.38-.91-.38v-.08h1.52Z"/>
    <path d="M764.46,234.33c.15.05.38.11.69.17s.65.12,1.04.16c.38.04.74.06,1.08.06l-2.8.25v-.65ZM778.19,234.73v.75h-13.72v-.75h13.72ZM765.99,235.43v.05c-.38.02-.69.15-.91.39-.22.24-.34.54-.34.89v.4h-.28v-1.73h1.53ZM770.56,248.16v1.6h-1.82v-.25h.3c.4,0,.74-.13,1.02-.4.28-.27.43-.58.45-.95h.05ZM772.14,234.83v14.92h-1.62v-14.92h1.62ZM772.06,248.16h.08c.02.37.17.68.45.95.28.27.62.4,1.03.4h.27v.25h-1.83v-1.6ZM778.19,234.33v.65l-2.8-.25c.33,0,.69-.02,1.06-.06.38-.04.72-.1,1.04-.16.32-.07.55-.12.7-.17ZM778.19,235.43v1.73h-.27v-.4c0-.35-.11-.65-.34-.89-.22-.24-.53-.37-.91-.39v-.05h1.52Z"/>
    <path d="M787.46,234.41c1.17,0,2.26.19,3.29.56,1.02.38,1.92.91,2.7,1.61.78.7,1.38,1.53,1.81,2.49.43.96.65,2.02.65,3.19s-.22,2.23-.65,3.19c-.43.96-1.04,1.79-1.81,2.49-.77.7-1.67,1.24-2.7,1.61-1.03.38-2.12.56-3.29.56s-2.26-.19-3.27-.56c-1.02-.38-1.91-.91-2.69-1.61-.78-.7-1.38-1.53-1.81-2.49-.43-.96-.65-2.02-.65-3.19s.22-2.23.65-3.19c.43-.96,1.04-1.79,1.81-2.49.77-.7,1.67-1.24,2.69-1.61,1.02-.38,2.11-.56,3.27-.56ZM787.46,249.36c1.23,0,2.35-.3,3.35-.9,1-.6,1.79-1.43,2.38-2.5.58-1.07.88-2.3.88-3.7s-.29-2.65-.88-3.71c-.58-1.06-1.38-1.89-2.38-2.49-1-.6-2.12-.9-3.35-.9s-2.33.3-3.33.9c-1,.6-1.79,1.43-2.38,2.49-.58,1.06-.88,2.3-.88,3.71s.29,2.63.88,3.7c.58,1.07,1.38,1.9,2.38,2.5,1,.6,2.11.9,3.33.9Z"/>
    <path d="M806.58,234.41c.77,0,1.49.05,2.16.16s1.32.28,1.92.5,1.19.51,1.74.86l.55,3.53h-.23c-.23-.98-.61-1.79-1.14-2.42-.53-.63-1.21-1.1-2.04-1.41-.83-.31-1.83-.46-3-.46-1.27,0-2.38.29-3.34.86-.96.58-1.71,1.39-2.24,2.45s-.8,2.32-.8,3.79.27,2.71.8,3.78,1.28,1.89,2.25,2.46,2.08.86,3.35.86c.7,0,1.37-.07,2-.22.63-.15,1.25-.39,1.84-.71.59-.32,1.15-.74,1.66-1.24l.02-3.33c.02-.32-.08-.56-.29-.72-.21-.17-.5-.25-.86-.25h-.35v-.25h4.58v.25h-.35c-.75,0-1.12.33-1.12,1v3c-.38.48-.91.97-1.58,1.47-.67.5-1.46.92-2.39,1.25-.92.33-1.98.5-3.16.5-1.65-.02-3.09-.34-4.31-.97-1.23-.63-2.18-1.53-2.86-2.7-.68-1.17-1.03-2.56-1.03-4.17s.34-3.03,1.03-4.2c.68-1.17,1.64-2.07,2.88-2.7,1.23-.63,2.67-.95,4.3-.95Z"/>
    <path d="M818.53,236.33h-.05c-.02-.38-.16-.7-.42-.95s-.61-.38-1.03-.38h-.35v-.25h2.17l-.33,1.58ZM818.53,248.16l.33,1.6h-2.17v-.25h.35c.42,0,.76-.13,1.03-.4.27-.27.41-.58.42-.95h.05ZM820.08,234.76v15h-1.6v-15h1.6ZM826.78,234.76v.78h-6.75v-.78h6.75ZM825.63,241.88v.75h-5.6v-.75h5.6ZM826.81,248.98l-.05.78h-6.73v-.78h6.78ZM828.21,246.18l-1.38,3.58h-3.8l.85-.78c.83,0,1.5-.12,2.01-.36.51-.24.92-.58,1.24-1,.32-.42.59-.9.83-1.44h.25ZM826.78,234.36v.65l-2.85-.25c.52,0,1.07-.05,1.65-.14.58-.09.98-.18,1.2-.26ZM825.63,240.51v1.42h-1.3v-.05c.35,0,.61-.1.77-.31.17-.21.25-.45.25-.74v-.33h.28ZM825.63,242.58v1.42h-.28v-.33c0-.28-.08-.53-.25-.74-.17-.21-.42-.31-.77-.31v-.05h1.3ZM826.78,235.46v1.72h-.27v-.38c0-.35-.11-.65-.34-.9-.22-.25-.53-.38-.91-.38v-.08h1.52Z"/>
    <path d="M829.33,234.33c.15.05.38.11.69.17s.65.12,1.04.16c.38.04.74.06,1.08.06l-2.8.25v-.65ZM843.06,234.73v.75h-13.72v-.75h13.72ZM830.86,235.43v.05c-.38.02-.69.15-.91.39-.22.24-.34.54-.34.89v.4h-.28v-1.73h1.53ZM835.43,248.16v1.6h-1.82v-.25h.3c.4,0,.74-.13,1.02-.4.28-.27.43-.58.45-.95h.05ZM837.01,234.83v14.92h-1.62v-14.92h1.62ZM836.93,248.16h.08c.02.37.17.68.45.95.28.27.62.4,1.03.4h.27v.25h-1.83v-1.6ZM843.06,234.33v.65l-2.8-.25c.33,0,.69-.02,1.06-.06.38-.04.72-.1,1.04-.16.32-.07.55-.12.7-.17ZM843.06,235.43v1.73h-.27v-.4c0-.35-.11-.65-.34-.89-.22-.24-.53-.37-.91-.39v-.05h1.52Z"/>
    <path d="M846.61,236.36h-.08c-.02-.38-.16-.7-.44-.96s-.61-.39-1.01-.39h-.3v-.25h1.83v1.6ZM846.61,248.16v1.6h-1.83v-.25h.3c.4,0,.74-.13,1.01-.4.28-.27.42-.58.44-.95h.08ZM848.13,234.76v15h-1.6v-15h1.6ZM857.61,241.98v.75h-9.75v-.75h9.75ZM848.06,236.36v-1.6h1.82v.25h-.3c-.4,0-.74.13-1.02.39-.28.26-.43.58-.43.96h-.07ZM848.06,248.16h.07c0,.37.14.68.43.95.28.27.62.4,1.02.4h.3v.25h-1.82v-1.6ZM857.43,236.36h-.08c-.02-.38-.16-.7-.44-.96-.28-.26-.61-.39-1.01-.39h-.3v-.25h1.83v1.6ZM857.43,248.16v1.6h-1.83v-.25h.3c.4,0,.74-.13,1.01-.4.27-.27.42-.58.44-.95h.08ZM858.96,234.76v15h-1.6v-15h1.6ZM858.88,236.36v-1.6h1.83v.25h-.3c-.4,0-.74.13-1.01.39-.27.26-.42.58-.44.96h-.08ZM858.88,248.16h.08c.02.37.16.68.44.95.28.27.61.4,1.01.4h.3v.25h-1.83v-1.6Z"/>
    <path d="M865.28,236.33h-.05c-.02-.38-.16-.7-.42-.95s-.61-.38-1.03-.38h-.35v-.25h2.17l-.33,1.58ZM865.28,248.16l.33,1.6h-2.17v-.25h.35c.42,0,.76-.13,1.03-.4.27-.27.41-.58.42-.95h.05ZM866.83,234.76v15h-1.6v-15h1.6ZM873.53,234.76v.78h-6.75v-.78h6.75ZM872.38,241.88v.75h-5.6v-.75h5.6ZM873.56,248.98l-.05.78h-6.73v-.78h6.78ZM874.96,246.18l-1.38,3.58h-3.8l.85-.78c.83,0,1.5-.12,2.01-.36.51-.24.92-.58,1.24-1,.32-.42.59-.9.83-1.44h.25ZM873.53,234.36v.65l-2.85-.25c.52,0,1.07-.05,1.65-.14.58-.09.98-.18,1.2-.26ZM872.38,240.51v1.42h-1.3v-.05c.35,0,.61-.1.77-.31.17-.21.25-.45.25-.74v-.33h.28ZM872.38,242.58v1.42h-.28v-.33c0-.28-.08-.53-.25-.74-.17-.21-.42-.31-.77-.31v-.05h1.3ZM873.53,235.46v1.72h-.27v-.38c0-.35-.11-.65-.34-.9-.22-.25-.53-.38-.91-.38v-.08h1.52Z"/>
    <path d="M878.66,236.33h-.05c-.02-.38-.16-.7-.43-.95s-.6-.38-1-.38h-.35v-.25h2.12l-.3,1.58ZM878.66,248.16l.3,1.6h-2.12v-.25h.35c.4,0,.73-.13,1-.4.27-.27.41-.58.43-.95h.05ZM880.18,234.76v15h-1.6v-15h1.6ZM880.11,248.16h.07c.02.37.16.68.43.95.27.27.6.4,1,.4h.32l.03.25h-2.15l.3-1.6ZM883.11,234.76c.78,0,1.49.09,2.11.28s1.16.45,1.6.8c.44.35.78.77,1.01,1.27s.35,1.07.35,1.7c0,.7-.17,1.35-.5,1.95-.33.6-.8,1.09-1.39,1.47-.59.38-1.26.62-2.01.7.28.12.61.38.99.78.38.4.7.79.96,1.17.43.58.82,1.09,1.16,1.51s.68.83,1.01,1.21c.35.38.67.72.96,1,.29.28.61.5.95.66s.74.24,1.19.24v.25h-.77c-.92,0-1.67-.12-2.26-.35-.59-.23-1.07-.52-1.44-.86-.37-.34-.68-.67-.95-.99-.07-.08-.22-.3-.46-.64-.24-.34-.5-.71-.79-1.11-.28-.4-.54-.76-.78-1.09-.23-.33-.38-.52-.42-.59-.33-.43-.72-.82-1.15-1.16-.43-.34-.89-.51-1.38-.51v-.25c.53.02,1.01.02,1.42,0,.47-.02.93-.05,1.4-.11s.9-.24,1.31-.54.73-.8.96-1.5c.07-.18.12-.4.15-.65.03-.25.04-.51.02-.78-.02-.47-.1-.88-.26-1.25-.16-.37-.38-.68-.67-.95s-.64-.47-1.04-.62c-.4-.15-.85-.23-1.35-.25-.78-.03-1.47-.04-2.05-.02s-.88.02-.88,0-.02-.09-.06-.21-.1-.31-.19-.56h3.23Z"/>
  </g>
</svg>